# xmcd
#
# Track frame offsets:
#	150
#	23175
#	42525
#	61537
#	75975
#	101795
#	120790
#	142512
#	159037
#	173082
#
# Disc length: 2527 seconds
#
# Revision: 0
# Processed by: cddbd v1.5.2PL0 Copyright (c) Steve Scherf et al.
# Submitted via: dBpowerAMP V4.0
#
DISCID=6209dd0a
DTITLE=First Aid Kit - The Lion's Roar
DYEAR=1900
DGENRE=Country
TTITLE0=The Lion's Roar
TTITLE1=Emmylou
TTITLE2=In The Hearts Of Men
TTITLE3=Blue
TTITLE4=This Old Routine
TTITLE5=To A Poet
TTITLE6=I Found A Way
TTITLE7=Dance To Another Tune
TTITLE8=New Year's Eve
TTITLE9=King Of The World
EXTD=
EXTT0=
EXTT1=
EXTT2=
EXTT3=
EXTT4=
EXTT5=
EXTT6=
EXTT7=
EXTT8=
EXTT9=
PLAYORDER=
